<svg version="1.1" id="Layer_1" xmlns="http://www.w3.org/2000/svg" xmlns:xlink="http://www.w3.org/1999/xlink" x="0px" y="0px"
	 width="100%" viewBox="0 0 683 549" enable-background="new 0 0 683 549" xml:space="preserve">
<path fill="#D55DA5" opacity="1.000000" stroke="none" 
	d="
M233.000000,550.000000 
	C155.681580,550.000000 78.363159,550.000000 1.022367,550.000000 
	C1.022367,367.050201 1.022367,184.100403 1.022367,1.075297 
	C228.572556,1.075297 456.145142,1.075297 683.858887,1.075297 
	C683.858887,183.999924 683.858887,366.999939 683.858887,550.000000 
	C618.234741,550.000000 552.581238,550.000000 486.395111,549.630493 
	C477.093872,521.881775 467.907043,494.627289 459.694489,467.082336 
	C453.577148,446.564758 442.197876,430.309326 424.500793,418.499054 
	C421.704193,416.632690 420.923004,414.675781 420.949493,411.587341 
	C421.062469,398.434753 420.988464,385.280609 421.450439,372.080017 
	C428.902100,372.016205 435.891144,371.822632 442.868896,372.022919 
	C454.113434,372.345612 465.137695,371.427765 475.578339,366.900085 
	C479.645782,365.136169 483.550049,362.996063 487.704254,361.354156 
	C489.225037,363.981354 490.479004,366.341125 491.932617,368.570770 
	C496.084442,374.939178 502.010986,378.301056 509.614655,377.821991 
	C517.412842,377.330719 522.968445,373.189880 526.282715,366.089172 
	C526.825378,364.926514 527.405762,363.781464 528.213684,362.126495 
	C530.294800,363.486816 532.080750,364.610779 533.822266,365.799774 
	C543.636719,372.500153 555.196472,370.756744 561.621155,361.591217 
	C567.927856,352.593994 565.756348,341.319427 556.398132,334.374329 
	C553.562500,332.269897 550.762878,330.116821 547.946777,327.986053 
	C552.570679,327.819397 556.625488,328.807678 560.715759,328.987732 
	C571.065063,329.443268 579.413208,322.149506 580.691284,311.939362 
	C581.878052,302.458618 575.603333,293.297638 565.883301,291.112030 
	C541.989075,285.739227 527.726257,270.063751 519.603088,248.113190 
	C520.882507,248.094376 521.714539,248.089706 522.546326,248.071609 
	C537.449219,247.747711 549.372070,238.555008 553.369324,224.308487 
	C557.115540,210.956802 551.032715,196.084229 538.704346,188.510330 
	C531.597961,184.144516 523.836548,183.133835 514.745667,184.723694 
	C514.745667,179.026245 514.745667,173.928787 514.818237,168.381348 
	C515.772949,155.883865 513.539917,144.406494 507.904633,133.758926 
	C503.317932,125.092651 497.904205,116.973938 488.599609,111.937218 
	C484.200500,109.521606 480.095215,107.277527 475.829468,104.718201 
	C471.521606,102.914520 467.429596,100.344261 463.217072,100.128616 
	C446.712921,99.283752 430.171051,99.167252 413.642029,98.837234 
	C412.523438,98.814903 411.395416,99.263916 409.792603,99.418236 
	C403.180481,99.374855 397.047546,99.406952 390.478088,99.253647 
	C367.579742,99.051651 345.117950,99.035042 322.212891,99.027893 
	C317.523407,99.127243 313.277191,99.217117 308.577789,99.145126 
	C293.812378,98.988708 279.485901,98.626892 265.194916,99.180954 
	C259.504456,99.401581 253.857956,101.522560 248.269058,103.060486 
	C246.862335,103.447571 245.754608,104.921249 244.169510,105.938950 
	C240.713577,107.806213 237.597610,109.630119 234.184814,111.425064 
	C232.998550,111.821007 231.968201,112.079369 231.240372,112.695236 
	C214.253372,127.069328 205.714996,145.139420 207.262894,168.107666 
	C207.186096,173.856369 207.186096,179.118988 207.186096,184.838501 
	C204.802002,184.520950 203.365402,184.298279 201.921600,184.142197 
	C189.005630,182.746140 178.042984,186.584229 170.575562,197.422867 
	C162.949539,208.491699 162.357040,220.525696 169.137970,232.223007 
	C175.961960,243.994644 186.836700,248.705399 200.143631,248.401169 
	C199.302734,250.606903 198.643585,252.503220 197.760956,254.289078 
	C188.791809,272.437042 175.763000,285.897369 155.317688,290.605255 
	C143.424515,293.343842 136.873093,302.682281 139.056305,314.059967 
	C141.066376,324.535156 151.671234,330.932648 163.253540,328.618408 
	C165.874756,328.094666 168.468155,327.431763 171.074371,326.832947 
	C168.493484,330.247711 165.444931,332.471741 162.444366,334.758728 
	C153.523193,341.558319 151.535721,353.157715 157.797104,361.729340 
	C164.327332,370.669037 175.925995,372.491974 185.257553,366.044983 
	C187.233749,364.679626 189.209167,363.313202 191.279266,361.882050 
	C197.509644,376.501556 209.318130,381.729156 220.345703,375.410858 
	C226.546921,371.857819 229.183929,365.687714 232.737640,359.923401 
	C234.268600,360.529510 235.525574,360.996307 236.634201,361.697571 
	C247.769440,368.741516 259.900269,372.140106 273.083527,372.001709 
	C281.076477,371.917786 289.072113,372.094604 297.061035,372.613159 
	C297.056763,386.209686 297.211823,399.350800 296.910736,412.481445 
	C296.859528,414.716217 295.437164,417.735931 293.658966,418.987701 
	C276.869934,430.806305 265.654785,446.450623 259.699036,466.082733 
	C255.510300,479.890350 250.832748,493.549011 246.450317,507.298737 
	C241.918503,521.517090 237.479553,535.765015 233.000000,550.000000 
z"/>
<path fill="#B682C2" opacity="1.000000" stroke="none" 
	d="
M420.982727,372.127014 
	C420.988464,385.280609 421.062469,398.434753 420.949493,411.587341 
	C420.923004,414.675781 421.704193,416.632690 424.500793,418.499054 
	C442.197876,430.309326 453.577148,446.564758 459.694489,467.082336 
	C467.907043,494.627289 477.093872,521.881775 485.931213,549.630493 
	C472.312439,550.000000 458.624878,550.000000 444.294617,549.710022 
	C442.607025,548.616455 441.675781,547.525024 440.497284,547.059814 
	C435.724365,545.175842 434.550842,541.710388 434.859894,536.843750 
	C435.258209,530.571655 434.819580,524.250854 435.009338,517.959167 
	C435.116028,514.421753 434.059448,512.843506 430.242950,512.944885 
	C421.134735,513.186707 412.017853,513.102539 402.446960,513.106934 
	C396.347992,513.081177 390.706482,513.098572 384.592957,513.088379 
	C367.071747,513.065247 350.022522,513.069702 332.508362,513.051636 
	C326.719757,513.060181 321.396118,513.091248 315.600037,513.093750 
	C306.633240,513.046204 298.136414,513.137634 289.645538,512.955017 
	C286.165771,512.880127 284.873108,514.172058 285.001892,517.621155 
	C285.188141,522.611084 284.469971,527.697083 285.180389,532.590698 
	C286.290710,540.239197 284.748871,545.981445 276.918945,548.849121 
	C276.524963,548.993347 276.302399,549.605652 276.000000,550.000000 
	C261.979095,550.000000 247.958206,550.000000 233.468658,550.000000 
	C237.479553,535.765015 241.918503,521.517090 246.450317,507.298737 
	C250.832748,493.549011 255.510300,479.890350 259.699036,466.082733 
	C265.654785,446.450623 276.869934,430.806305 293.658966,418.987701 
	C295.437164,417.735931 296.859528,414.716217 296.910736,412.481445 
	C297.211823,399.350800 297.056763,386.209686 297.521576,372.565369 
	C338.986023,372.081451 379.984375,372.104248 420.982727,372.127014 
z"/>
<path fill="#A553B5" opacity="1.000000" stroke="none" 
	d="
M276.468689,550.000000 
	C276.302399,549.605652 276.524963,548.993347 276.918945,548.849121 
	C284.748871,545.981445 286.290710,540.239197 285.180389,532.590698 
	C284.469971,527.697083 285.188141,522.611084 285.001892,517.621155 
	C284.873108,514.172058 286.165771,512.880127 289.645538,512.955017 
	C298.136414,513.137634 306.633240,513.046204 315.581238,513.549866 
	C316.024414,520.503723 316.005859,526.972778 316.005493,533.441895 
	C316.004944,543.939392 316.309509,544.231567 326.791748,543.967896 
	C327.289154,543.955383 327.787079,543.957642 328.284088,543.936890 
	C332.503204,543.760681 334.081055,541.330994 333.920959,537.373962 
	C333.593262,529.274536 333.287872,521.174194 332.973267,513.074219 
	C350.022522,513.069702 367.071747,513.065247 384.575562,513.545166 
	C385.020508,519.861755 384.939606,525.694885 385.015808,531.526001 
	C385.182648,544.299255 382.536163,543.996643 397.793213,544.022339 
	C401.729736,544.028992 403.096649,542.447449 403.019409,538.643433 
	C402.847015,530.148376 402.927185,521.648132 402.904449,513.150024 
	C412.017853,513.102539 421.134735,513.186707 430.242950,512.944885 
	C434.059448,512.843506 435.116028,514.421753 435.009338,517.959167 
	C434.819580,524.250854 435.258209,530.571655 434.859894,536.843750 
	C434.550842,541.710388 435.724365,545.175842 440.497284,547.059814 
	C441.675781,547.525024 442.607025,548.616455 443.825989,549.710022 
	C388.312439,550.000000 332.624878,550.000000 276.468689,550.000000 
z"/>
<path fill="#B76E45" opacity="1.000000" stroke="none" 
	d="
M421.450439,372.080017 
	C379.984375,372.104248 338.986023,372.081451 297.527100,372.106445 
	C289.072113,372.094604 281.076477,371.917786 273.083527,372.001709 
	C259.900269,372.140106 247.769440,368.741516 236.634201,361.697571 
	C235.525574,360.996307 234.268600,360.529510 232.622955,359.593903 
	C231.429932,358.347931 230.800766,357.339661 229.943176,356.594116 
	C213.477081,342.278900 206.717072,323.937744 207.016068,302.462494 
	C207.245438,285.988861 207.073257,269.509430 207.045837,253.032639 
	C207.042679,251.134048 206.822510,249.235825 206.679291,246.961670 
	C204.087845,247.394592 202.154755,247.717529 200.221649,248.040466 
	C186.836700,248.705399 175.961960,243.994644 169.137970,232.223007 
	C162.357040,220.525696 162.949539,208.491699 170.575562,197.422867 
	C178.042984,186.584229 189.005630,182.746140 201.921600,184.142197 
	C203.365402,184.298279 204.802002,184.520950 207.186096,184.838501 
	C207.186096,179.118988 207.186096,173.856369 207.574890,168.242172 
	C210.290115,169.242493 212.616531,170.594391 214.977783,172.380951 
	C215.053314,182.701035 219.651154,190.241272 228.076752,191.448532 
	C233.975510,192.293747 233.959885,195.049011 234.126846,199.614029 
	C234.537247,210.833771 234.382706,222.290359 236.705765,233.171249 
	C239.877045,248.025055 249.704559,259.012909 261.990417,267.956848 
	C259.540039,274.575470 260.692749,278.508881 265.202026,279.745148 
	C269.008759,280.788788 271.986267,278.205780 273.408539,272.990173 
	C300.543365,281.261200 326.801147,273.562744 342.091187,251.849030 
	C346.936768,244.967667 349.491791,236.427185 352.782745,228.516037 
	C354.520813,224.337997 358.879150,221.084747 363.560883,221.356979 
	C369.492493,221.701889 372.957733,224.323090 374.068939,229.173538 
	C376.571503,240.097534 381.555969,249.733841 389.355286,257.812988 
	C401.827759,270.732941 417.127167,276.765747 435.124939,276.599518 
	C439.429504,281.393158 442.965424,280.816315 446.333893,275.050659 
	C453.499969,271.954926 460.304138,268.979950 467.496185,266.011292 
	C476.531860,268.032898 479.493805,265.149567 478.111267,255.825577 
	C494.305237,237.274185 493.721069,215.197510 492.440125,193.073853 
	C508.670502,188.101669 512.594910,183.461044 511.830292,170.431641 
	C512.993713,169.738922 513.869690,169.285126 514.745667,168.831314 
	C514.745667,173.928787 514.745667,179.026245 514.745667,184.723694 
	C523.836548,183.133835 531.597961,184.144516 538.704346,188.510330 
	C551.032715,196.084229 557.115540,210.956802 553.369324,224.308487 
	C549.372070,238.555008 537.449219,247.747711 522.546326,248.071609 
	C521.714539,248.089706 520.882507,248.094376 519.170898,248.069412 
	C514.546692,247.638519 514.945007,250.290634 514.943604,252.614700 
	C514.932739,270.729523 515.120972,288.846954 514.870483,306.958374 
	C514.644592,323.286987 509.552795,337.966125 498.424896,350.198212 
	C494.983337,353.981262 491.171143,357.427094 487.528625,361.027313 
	C483.550049,362.996063 479.645782,365.136169 475.578339,366.900085 
	C465.137695,371.427765 454.113434,372.345612 442.868896,372.022919 
	C435.891144,371.822632 428.902100,372.016205 421.450439,372.080017 
M360.458374,243.060425 
	C357.201050,248.277328 353.588379,253.313583 350.812042,258.775024 
	C348.978302,262.382233 347.173737,266.681549 347.440155,270.526581 
	C347.882904,276.917114 351.535980,282.132996 357.831543,284.664490 
	C364.300140,287.265625 369.947693,285.263428 374.726685,280.665314 
	C379.770172,275.812775 380.612915,269.566162 377.870422,263.635895 
	C374.471588,256.286499 369.971649,249.437119 365.802826,242.458069 
	C364.343567,240.015152 362.499756,239.886429 360.458374,243.060425 
M362.747559,305.912781 
	C363.110687,299.275482 361.849030,297.594269 355.274933,298.046753 
	C339.076385,299.161713 325.401947,294.656860 315.198608,281.437103 
	C313.057465,278.662994 310.168457,278.052368 307.324188,280.301880 
	C304.214844,282.761078 303.989502,286.237671 306.070007,289.226440 
	C308.419312,292.601288 311.260498,295.741425 314.333130,298.484833 
	C323.543671,306.708405 334.820831,310.064178 346.829132,310.812012 
	C352.272736,311.151031 358.240814,311.764435 362.747559,305.912781 
M186.504105,220.110901 
	C183.744354,224.090683 183.213089,228.666931 186.551743,231.951782 
	C188.779892,234.144058 192.886353,235.443939 196.106979,235.362152 
	C200.460815,235.251602 203.001633,231.687378 203.672974,227.366409 
	C204.331955,223.125000 202.354599,219.881836 198.790298,217.828674 
	C194.541748,215.381393 190.537384,216.245529 186.504105,220.110901 
M517.136108,223.166901 
	C517.047913,224.324753 516.839233,225.488159 516.892334,226.639496 
	C517.126770,231.724701 520.765381,235.543320 525.606750,235.880081 
	C530.431763,236.215729 535.075500,232.447388 535.845947,227.571213 
	C536.541870,223.166351 533.707764,218.514725 529.357788,216.922104 
	C524.962158,215.312790 520.631714,217.301270 517.136108,223.166901 
M459.099823,291.411560 
	C462.924957,294.007660 465.735809,292.424652 467.885742,289.072510 
	C469.681702,286.272400 469.155365,283.449280 466.560913,281.531342 
	C463.822449,279.506989 460.573914,278.883301 458.000427,281.786499 
	C455.312378,284.819000 455.109131,288.073303 459.099823,291.411560 
M239.718277,264.122803 
	C241.864075,261.101593 240.967987,258.209259 238.508133,256.228241 
	C236.933655,254.960251 234.000427,253.826782 232.454163,254.478470 
	C230.616562,255.252975 228.795197,257.889069 228.500381,259.939056 
	C228.252914,261.659729 229.787689,264.170563 231.278503,265.489166 
	C233.874603,267.785400 236.775101,267.068939 239.718277,264.122803 
M250.001602,285.573822 
	C248.590820,283.779297 247.535950,281.209717 245.690292,280.362152 
	C242.489838,278.892456 238.837051,281.357727 238.120819,284.667847 
	C237.341385,288.270050 239.518341,291.940704 243.249802,292.435516 
	C247.554871,293.006409 249.469910,290.306396 250.001602,285.573822 
z"/>
<path fill="#B76E46" opacity="1.000000" stroke="none" 
	d="
M309.030945,99.306992 
	C313.277191,99.217117 317.523407,99.127243 322.363647,99.347626 
	C332.254120,108.913963 341.146057,118.630196 350.980011,127.274834 
	C358.330505,133.736359 367.574738,133.791885 376.445068,130.139114 
	C388.026306,125.369972 393.596222,113.135605 390.914612,99.439041 
	C397.047546,99.406952 403.180481,99.374855 409.742798,99.804504 
	C407.268860,111.148811 408.245026,121.225777 417.197876,129.067657 
	C427.968506,138.501755 442.242035,137.857422 452.808228,127.710060 
	C460.604370,120.222961 468.267517,112.597351 475.989929,105.033447 
	C480.095215,107.277527 484.200500,109.521606 488.438599,112.209343 
	C485.531769,115.717133 482.650604,118.960533 479.423553,121.812637 
	C468.665070,131.321121 464.740997,142.748978 468.666992,156.751801 
	C449.695892,156.835724 431.194153,156.587875 412.703552,156.934479 
	C394.258545,157.280243 378.107086,170.751389 374.096558,188.817703 
	C373.034790,193.600800 372.976807,198.606750 372.437225,203.705856 
	C366.352264,203.705856 360.329254,203.705856 354.418823,203.705856 
	C354.228027,202.954681 354.089966,202.639618 354.077118,202.319550 
	C354.030304,201.154633 354.042664,199.987427 354.002106,198.822144 
	C353.437561,182.595535 346.333160,170.181137 332.286011,161.922821 
	C325.351379,157.845932 317.740601,156.662430 309.754059,156.706604 
	C291.433197,156.807938 273.110840,156.639893 254.800171,156.178131 
	C258.357391,142.710815 254.956696,131.734512 245.100296,122.526711 
	C241.369049,119.041008 238.010223,115.156662 234.481644,111.454025 
	C237.597610,109.630119 240.713577,107.806213 244.504364,106.099571 
	C252.733429,113.661392 260.188507,121.210052 267.866882,128.524323 
	C277.564148,137.761734 292.527985,138.147430 302.198059,129.262726 
	C311.240814,120.954369 313.180298,110.758995 309.030945,99.306992 
z"/>
<path fill="#672C2C" opacity="1.000000" stroke="none" 
	d="
M200.143631,248.401154 
	C202.154755,247.717529 204.087845,247.394592 206.679291,246.961670 
	C206.822510,249.235825 207.042679,251.134048 207.045837,253.032639 
	C207.073257,269.509430 207.245438,285.988861 207.016068,302.462494 
	C206.717072,323.937744 213.477081,342.278900 229.943176,356.594116 
	C230.800766,357.339661 231.429932,358.347931 232.280090,359.563416 
	C229.183929,365.687714 226.546921,371.857819 220.345703,375.410858 
	C209.318130,381.729156 197.509644,376.501556 191.279266,361.882050 
	C189.209167,363.313202 187.233749,364.679626 185.257553,366.044983 
	C175.925995,372.491974 164.327332,370.669037 157.797104,361.729340 
	C151.535721,353.157715 153.523193,341.558319 162.444366,334.758728 
	C165.444931,332.471741 168.493484,330.247711 171.074371,326.832947 
	C168.468155,327.431763 165.874756,328.094666 163.253540,328.618408 
	C151.671234,330.932648 141.066376,324.535156 139.056305,314.059967 
	C136.873093,302.682281 143.424515,293.343842 155.317688,290.605255 
	C175.763000,285.897369 188.791809,272.437042 197.760956,254.289078 
	C198.643585,252.503220 199.302734,250.606903 200.143631,248.401154 
z"/>
<path fill="#672C2C" opacity="1.000000" stroke="none" 
	d="
M487.704285,361.354156 
	C491.171143,357.427094 494.983337,353.981262 498.424896,350.198212 
	C509.552795,337.966125 514.644592,323.286987 514.870483,306.958374 
	C515.120972,288.846954 514.932739,270.729523 514.943604,252.614700 
	C514.945007,250.290634 514.546692,247.638519 518.723389,248.077332 
	C527.726257,270.063751 541.989075,285.739227 565.883301,291.112030 
	C575.603333,293.297638 581.878052,302.458618 580.691284,311.939362 
	C579.413208,322.149506 571.065063,329.443268 560.715759,328.987732 
	C556.625488,328.807678 552.570679,327.819397 547.946777,327.986053 
	C550.762878,330.116821 553.562500,332.269897 556.398132,334.374329 
	C565.756348,341.319427 567.927856,352.593994 561.621155,361.591217 
	C555.196472,370.756744 543.636719,372.500153 533.822266,365.799774 
	C532.080750,364.610779 530.294800,363.486816 528.213684,362.126495 
	C527.405762,363.781464 526.825378,364.926514 526.282715,366.089172 
	C522.968445,373.189880 517.412842,377.330719 509.614655,377.821991 
	C502.010986,378.301056 496.084442,374.939178 491.932617,368.570770 
	C490.479004,366.341125 489.225037,363.981354 487.704285,361.354156 
z"/>
<path fill="#672C2B" opacity="1.000000" stroke="none" 
	d="
M475.829468,104.718201 
	C468.267517,112.597351 460.604370,120.222961 452.808228,127.710060 
	C442.242035,137.857422 427.968506,138.501755 417.197876,129.067657 
	C408.245026,121.225777 407.268860,111.148811 410.221985,99.879990 
	C411.395416,99.263916 412.523438,98.814903 413.642029,98.837234 
	C430.171051,99.167252 446.712921,99.283752 463.217072,100.128616 
	C467.429596,100.344261 471.521606,102.914520 475.829468,104.718201 
z"/>
<path fill="#672C2C" opacity="1.000000" stroke="none" 
	d="
M308.577789,99.145126 
	C313.180298,110.758995 311.240814,120.954369 302.198059,129.262726 
	C292.527985,138.147430 277.564148,137.761734 267.866882,128.524323 
	C260.188507,121.210052 252.733429,113.661392 244.844330,106.056206 
	C245.754608,104.921249 246.862335,103.447571 248.269058,103.060486 
	C253.857956,101.522560 259.504456,99.401581 265.194916,99.180954 
	C279.485901,98.626892 293.812378,98.988708 308.577789,99.145126 
z"/>
<path fill="#682D2D" opacity="1.000000" stroke="none" 
	d="
M234.184814,111.425064 
	C238.010223,115.156662 241.369049,119.041008 245.100296,122.526711 
	C254.956696,131.734512 258.357391,142.710815 254.361359,156.283234 
	C247.914169,156.822205 241.916946,156.871597 235.919647,156.879868 
	C223.708588,156.896729 218.815170,160.401337 214.942963,171.946274 
	C212.616531,170.594391 210.290115,169.242493 207.651688,167.756104 
	C205.714996,145.139420 214.253372,127.069328 231.240372,112.695236 
	C231.968201,112.079369 232.998550,111.821007 234.184814,111.425064 
z"/>
<path fill="#672D2C" opacity="1.000000" stroke="none" 
	d="
M390.478088,99.253647 
	C393.596222,113.135605 388.026306,125.369972 376.445068,130.139114 
	C367.574738,133.791885 358.330505,133.736359 350.980011,127.274834 
	C341.146057,118.630196 332.254120,108.913963 322.806915,99.338158 
	C345.117950,99.035042 367.579742,99.051651 390.478088,99.253647 
z"/>
<path fill="#682D2C" opacity="1.000000" stroke="none" 
	d="
M469.141266,156.680557 
	C464.740997,142.748978 468.665070,131.321121 479.423553,121.812637 
	C482.650604,118.960533 485.531769,115.717133 488.732422,112.380875 
	C497.904205,116.973938 503.317932,125.092651 507.904633,133.758926 
	C513.539917,144.406494 515.772949,155.883865 514.818237,168.381348 
	C513.869690,169.285126 512.993713,169.738922 511.664673,170.099091 
	C507.691833,160.710739 502.326019,156.967072 492.466431,156.893524 
	C484.691254,156.835526 476.916321,156.752487 469.141266,156.680557 
z"/>
<path fill="#8D489B" opacity="1.000000" stroke="none" 
	d="
M402.446960,513.106934 
	C402.927185,521.648132 402.847015,530.148376 403.019409,538.643433 
	C403.096649,542.447449 401.729736,544.028992 397.793213,544.022339 
	C382.536163,543.996643 385.182648,544.299255 385.015808,531.526001 
	C384.939606,525.694885 385.020508,519.861755 385.047546,513.572754 
	C390.706482,513.098572 396.347992,513.081177 402.446960,513.106934 
z"/>
<path fill="#8D479B" opacity="1.000000" stroke="none" 
	d="
M332.508362,513.051636 
	C333.287872,521.174194 333.593262,529.274536 333.920959,537.373962 
	C334.081055,541.330994 332.503204,543.760681 328.284088,543.936890 
	C327.787079,543.957642 327.289154,543.955383 326.791748,543.967896 
	C316.309509,544.231567 316.004944,543.939392 316.005493,533.441895 
	C316.005859,526.972778 316.024414,520.503723 316.053619,513.578491 
	C321.396118,513.091248 326.719757,513.060181 332.508362,513.051636 
z"/>
<path fill="#FD9BD8" opacity="1.000000" stroke="none" 
	d="
M468.666992,156.751801 
	C476.916321,156.752487 484.691254,156.835526 492.466431,156.893524 
	C502.326019,156.967072 507.691833,160.710739 511.377258,170.338013 
	C512.594910,183.461044 508.670502,188.101669 492.440125,193.073853 
	C493.721069,215.197510 494.305237,237.274185 477.817322,255.963821 
	C473.986969,259.623474 470.547607,262.814209 467.108276,266.004944 
	C460.304138,268.979950 453.499969,271.954926 445.923889,274.997009 
	C441.781830,275.466644 438.411682,275.869171 435.041565,276.271729 
	C417.127167,276.765747 401.827759,270.732941 389.355286,257.812988 
	C381.555969,249.733841 376.571503,240.097534 374.068939,229.173538 
	C372.957733,224.323090 369.492493,221.701889 363.560883,221.356979 
	C358.879150,221.084747 354.520813,224.337997 352.782745,228.516037 
	C349.491791,236.427185 346.936768,244.967667 342.091187,251.849030 
	C326.801147,273.562744 300.543365,281.261200 273.162872,272.740479 
	C269.059540,270.836914 265.591492,269.209229 262.123413,267.581543 
	C249.704559,259.012909 239.877045,248.025055 236.705765,233.171249 
	C234.382706,222.290359 234.537247,210.833771 234.126846,199.614029 
	C233.959885,195.049011 233.975510,192.293747 228.076752,191.448532 
	C219.651154,190.241272 215.053314,182.701035 214.977783,172.380951 
	C218.815170,160.401337 223.708588,156.896729 235.919647,156.879868 
	C241.916946,156.871597 247.914169,156.822205 254.350250,156.686310 
	C273.110840,156.639893 291.433197,156.807938 309.754059,156.706604 
	C317.740601,156.662430 325.351379,157.845932 332.286011,161.922821 
	C346.333160,170.181137 353.437561,182.595535 354.002106,198.822144 
	C354.042664,199.987427 354.030304,201.154633 354.077118,202.319550 
	C354.089966,202.639618 354.228027,202.954681 354.418823,203.705856 
	C360.329254,203.705856 366.352264,203.705856 372.437225,203.705856 
	C372.976807,198.606750 373.034790,193.600800 374.096558,188.817703 
	C378.107086,170.751389 394.258545,157.280243 412.703552,156.934479 
	C431.194153,156.587875 449.695892,156.835724 468.666992,156.751801 
M338.053558,180.542801 
	C331.558441,171.575485 322.903320,166.890472 311.702271,166.976013 
	C299.536835,167.068924 287.370087,166.973511 275.203979,166.999039 
	C261.155914,167.028534 247.252487,177.211380 245.508224,191.099609 
	C244.014908,202.989655 243.714340,215.506699 245.735153,227.256470 
	C249.367905,248.378647 269.721191,264.911346 289.198975,266.113159 
	C317.311462,267.847748 337.122284,249.616989 341.697113,229.775024 
	C343.758453,220.834702 343.464966,211.324097 343.953735,202.057129 
	C344.348785,194.566986 342.513580,187.528748 338.053558,180.542801 
M384.177002,189.967789 
	C384.097260,201.877701 382.668335,213.967682 384.228699,225.658707 
	C387.154755,247.582047 407.844940,264.986084 428.721252,266.115417 
	C455.757935,267.578033 476.387238,249.885880 480.634003,228.558456 
	C482.682068,218.273026 482.122101,207.380753 482.003082,196.771561 
	C481.817963,180.268646 467.878967,167.039948 451.297028,167.001007 
	C439.474060,166.973236 427.651001,166.997635 415.827972,166.996277 
	C400.510468,166.994507 389.745850,174.599747 384.177002,189.967789 
M494.363129,170.018936 
	C491.217682,169.947968 488.822510,171.323563 489.276062,174.571762 
	C489.500092,176.176361 491.578766,178.428085 493.109558,178.690994 
	C494.660919,178.957397 497.358490,177.569031 498.156677,176.130249 
	C499.696106,173.355194 498.270874,171.060928 494.363129,170.018936 
M235.980515,171.596939 
	C233.785568,171.484497 231.394165,170.826721 229.487183,171.513687 
	C228.662781,171.810654 228.074615,175.305908 228.776093,176.577988 
	C229.471466,177.838989 232.074371,178.955231 233.576187,178.681915 
	C237.063354,178.047211 237.602493,175.341171 235.980515,171.596939 
z"/>
<path fill="#904727" opacity="1.000000" stroke="none" 
	d="
M360.685883,242.800659 
	C362.499756,239.886429 364.343567,240.015152 365.802826,242.458069 
	C369.971649,249.437119 374.471588,256.286499 377.870422,263.635895 
	C380.612915,269.566162 379.770172,275.812775 374.726685,280.665314 
	C369.947693,285.263428 364.300140,287.265625 357.831543,284.664490 
	C351.535980,282.132996 347.882904,276.917114 347.440155,270.526581 
	C347.173737,266.681549 348.978302,262.382233 350.812042,258.775024 
	C353.588379,253.313583 357.201050,248.277328 360.685883,242.800659 
z"/>
<path fill="#904627" opacity="1.000000" stroke="none" 
	d="
M362.588654,306.279236 
	C358.240814,311.764435 352.272736,311.151031 346.829132,310.812012 
	C334.820831,310.064178 323.543671,306.708405 314.333130,298.484833 
	C311.260498,295.741425 308.419312,292.601288 306.070007,289.226440 
	C303.989502,286.237671 304.214844,282.761078 307.324188,280.301880 
	C310.168457,278.052368 313.057465,278.662994 315.198608,281.437103 
	C325.401947,294.656860 339.076385,299.161713 355.274933,298.046753 
	C361.849030,297.594269 363.110687,299.275482 362.588654,306.279236 
z"/>
<path fill="#FCC504" opacity="1.000000" stroke="none" 
	d="
M186.752640,219.824615 
	C190.537384,216.245529 194.541748,215.381393 198.790298,217.828674 
	C202.354599,219.881836 204.331955,223.125000 203.672974,227.366409 
	C203.001633,231.687378 200.460815,235.251602 196.106979,235.362152 
	C192.886353,235.443939 188.779892,234.144058 186.551743,231.951782 
	C183.213089,228.666931 183.744354,224.090683 186.752640,219.824615 
z"/>
<path fill="#FCC504" opacity="1.000000" stroke="none" 
	d="
M517.273560,222.787415 
	C520.631714,217.301270 524.962158,215.312790 529.357788,216.922104 
	C533.707764,218.514725 536.541870,223.166351 535.845947,227.571213 
	C535.075500,232.447388 530.431763,236.215729 525.606750,235.880081 
	C520.765381,235.543320 517.126770,231.724701 516.892334,226.639496 
	C516.839233,225.488159 517.047913,224.324753 517.273560,222.787415 
z"/>
<path fill="#9E5330" opacity="1.000000" stroke="none" 
	d="
M458.805878,291.178070 
	C455.109131,288.073303 455.312378,284.819000 458.000427,281.786499 
	C460.573914,278.883301 463.822449,279.506989 466.560913,281.531342 
	C469.155365,283.449280 469.681702,286.272400 467.885742,289.072510 
	C465.735809,292.424652 462.924957,294.007660 458.805878,291.178070 
z"/>
<path fill="#9E5230" opacity="1.000000" stroke="none" 
	d="
M239.465729,264.400818 
	C236.775101,267.068939 233.874603,267.785400 231.278503,265.489166 
	C229.787689,264.170563 228.252914,261.659729 228.500381,259.939056 
	C228.795197,257.889069 230.616562,255.252975 232.454163,254.478470 
	C234.000427,253.826782 236.933655,254.960251 238.508133,256.228241 
	C240.967987,258.209259 241.864075,261.101593 239.465729,264.400818 
z"/>
<path fill="#9E5230" opacity="1.000000" stroke="none" 
	d="
M250.003372,285.969299 
	C249.469910,290.306396 247.554871,293.006409 243.249802,292.435516 
	C239.518341,291.940704 237.341385,288.270050 238.120819,284.667847 
	C238.837051,281.357727 242.489838,278.892456 245.690292,280.362152 
	C247.535950,281.209717 248.590820,283.779297 250.003372,285.969299 
z"/>
<path fill="#9F5331" opacity="1.000000" stroke="none" 
	d="
M261.990417,267.956848 
	C265.591492,269.209229 269.059540,270.836914 272.773285,272.714294 
	C271.986267,278.205780 269.008759,280.788788 265.202026,279.745148 
	C260.692749,278.508881 259.540039,274.575470 261.990417,267.956848 
z"/>
<path fill="#A25536" opacity="1.000000" stroke="none" 
	d="
M467.496155,266.011261 
	C470.547607,262.814209 473.986969,259.623474 477.720276,256.294495 
	C479.493805,265.149567 476.531860,268.032898 467.496155,266.011261 
z"/>
<path fill="#A25534" opacity="1.000000" stroke="none" 
	d="
M435.124939,276.599548 
	C438.411682,275.869171 441.781830,275.466644 445.561951,275.117737 
	C442.965424,280.816315 439.429504,281.393158 435.124939,276.599548 
z"/>
<path fill="#FDFDFD" opacity="1.000000" stroke="none" 
	d="
M338.270782,180.835236 
	C342.513580,187.528748 344.348785,194.566986 343.953735,202.057129 
	C343.464966,211.324097 343.758453,220.834702 341.697113,229.775024 
	C337.122284,249.616989 317.311462,267.847748 289.198975,266.113159 
	C269.721191,264.911346 249.367905,248.378647 245.735153,227.256470 
	C243.714340,215.506699 244.014908,202.989655 245.508224,191.099609 
	C247.252487,177.211380 261.155914,167.028534 275.203979,166.999039 
	C287.370087,166.973511 299.536835,167.068924 311.702271,166.976013 
	C322.903320,166.890472 331.558441,171.575485 338.270782,180.835236 
M297.647614,245.013382 
	C314.601624,252.660660 333.572754,242.970032 334.876282,225.556778 
	C335.582947,216.116699 335.542267,206.544464 334.894806,197.096527 
	C333.849274,181.840271 317.776276,171.379898 303.109222,175.843765 
	C311.590546,196.111084 305.384735,206.910599 284.018402,208.733398 
	C283.202423,222.573547 282.491699,236.322144 297.647614,245.013382 
z"/>
<path fill="#FEFDFE" opacity="1.000000" stroke="none" 
	d="
M384.298462,189.578705 
	C389.745850,174.599747 400.510468,166.994507 415.827972,166.996277 
	C427.651001,166.997635 439.474060,166.973236 451.297028,167.001007 
	C467.878967,167.039948 481.817963,180.268646 482.003082,196.771561 
	C482.122101,207.380753 482.682068,218.273026 480.634003,228.558456 
	C476.387238,249.885880 455.757935,267.578033 428.721252,266.115417 
	C407.844940,264.986084 387.154755,247.582047 384.228699,225.658707 
	C382.668335,213.967682 384.097260,201.877701 384.298462,189.578705 
M428.176910,177.134888 
	C422.425812,174.475800 416.517334,174.030762 409.890900,175.648636 
	C415.218048,183.227325 416.697327,190.866470 412.049194,198.818512 
	C407.426880,206.726440 399.971283,209.085678 391.176239,208.376785 
	C391.176239,213.400467 390.962433,217.896469 391.215302,222.366058 
	C392.059052,237.279816 403.046539,248.043045 417.156250,247.975983 
	C431.449707,247.908020 442.410522,236.766022 442.867432,221.604309 
	C443.078033,214.616013 443.103271,207.609344 442.860565,200.623215 
	C442.504791,190.383484 438.033661,182.469986 428.176910,177.134888 
z"/>
<path fill="#FDC9EB" opacity="1.000000" stroke="none" 
	d="
M494.753296,170.052994 
	C498.270874,171.060928 499.696106,173.355194 498.156677,176.130249 
	C497.358490,177.569031 494.660919,178.957397 493.109558,178.690994 
	C491.578766,178.428085 489.500092,176.176361 489.276062,174.571762 
	C488.822510,171.323563 491.217682,169.947968 494.753296,170.052994 
z"/>
<path fill="#FDCBEB" opacity="1.000000" stroke="none" 
	d="
M236.211060,171.915344 
	C237.602493,175.341171 237.063354,178.047211 233.576187,178.681915 
	C232.074371,178.955231 229.471466,177.838989 228.776093,176.577988 
	C228.074615,175.305908 228.662781,171.810654 229.487183,171.513687 
	C231.394165,170.826721 233.785568,171.484497 236.211060,171.915344 
z"/>
<path fill="#3F3F3F" opacity="1.000000" stroke="none" 
	d="
M297.313660,244.845551 
	C282.491699,236.322144 283.202423,222.573547 284.018402,208.733398 
	C305.384735,206.910599 311.590546,196.111084 303.109222,175.843765 
	C317.776276,171.379898 333.849274,181.840271 334.894806,197.096527 
	C335.542267,206.544464 335.582947,216.116699 334.876282,225.556778 
	C333.572754,242.970032 314.601624,252.660660 297.313660,244.845551 
z"/>
<path fill="#3F3F3F" opacity="1.000000" stroke="none" 
	d="
M428.502808,177.326736 
	C438.033661,182.469986 442.504791,190.383484 442.860565,200.623215 
	C443.103271,207.609344 443.078033,214.616013 442.867432,221.604309 
	C442.410522,236.766022 431.449707,247.908020 417.156250,247.975983 
	C403.046539,248.043045 392.059052,237.279816 391.215302,222.366058 
	C390.962433,217.896469 391.176239,213.400467 391.176239,208.376785 
	C399.971283,209.085678 407.426880,206.726440 412.049194,198.818512 
	C416.697327,190.866470 415.218048,183.227325 409.890900,175.648636 
	C416.517334,174.030762 422.425812,174.475800 428.502808,177.326736 
z"/>
</svg>